<svg width="41" height="93" viewBox="0 0 41 93" fill="none" xmlns="http://www.w3.org/2000/svg">
<path d="M15.6759 0.480469C15.6666 0.526826 15.6759 0.61027 15.6388 0.628813C14.6097 1.01822 14.1739 1.86192 14.1368 2.86325C14.0441 5.45927 14.007 8.06456 13.9792 10.6699C13.9607 12.3109 13.9792 13.952 13.97 15.6023C13.97 15.8804 14.0719 15.9453 14.3223 15.9917C15.2123 16.1308 16.0931 16.3069 17.0203 16.4738C16.9739 18.2354 16.9276 19.9599 16.8812 21.6844C16.668 19.8486 15.713 18.6063 13.9792 17.8553C14.0349 19.0977 14.0441 20.2844 14.1368 21.4526C14.1925 22.1943 14.7302 22.6301 15.4719 22.6486C16.4918 22.6857 17.5209 22.7599 18.5408 22.7135C21.0534 22.6023 23.4176 22.0089 25.4295 20.4049C26.3938 19.6354 27.2189 18.7268 27.7567 17.5957C27.8123 17.4844 27.8679 17.3824 28.0163 17.3083C27.7289 18.152 27.4693 19.0142 27.154 19.8486C26.7646 20.8963 26.3196 21.9347 25.6335 22.8341C24.9752 23.7149 24.1408 24.2155 22.9819 24.2155C18.615 24.1877 14.2481 24.2063 9.88123 24.2063H9.47328C10.4561 23.8447 10.9474 23.1029 11.1329 22.1202C11.17 21.8884 11.2349 21.6566 11.2349 21.4341C11.2441 20.0248 11.2349 18.6248 11.2349 17.1321C10.7898 17.1228 10.2706 17.0672 9.76997 17.1043C8.74083 17.197 7.72096 17.3917 6.80309 17.9109C5.44017 18.6804 4.59647 19.8208 4.59647 21.4248C4.59647 22.8712 5.44945 23.8632 6.6362 24.5771C7.83222 25.3003 9.15805 25.736 10.4561 26.2182C11.7448 26.691 13.0614 27.1175 14.2945 27.7202C15.7594 28.4433 16.7514 29.6394 17.113 31.2804C17.4653 32.8751 17.0852 34.3493 16.2415 35.7029C14.9064 37.8354 12.9316 39.0963 10.5395 39.7175C8.00838 40.3758 5.52362 40.1254 3.10375 39.1797C1.73157 38.642 1.10111 37.5758 1.02694 36.1294C0.962037 34.7758 0.878594 33.4314 0.813693 32.0778C0.804422 31.8089 0.850779 31.54 0.897137 31.2804C1.12892 32.8102 1.63886 34.2195 2.58455 35.4619C3.76203 37.0009 5.28256 37.9559 7.2203 38.2248C8.9448 38.4566 10.5951 38.2526 12.1064 37.344C13.3951 36.5744 14.1739 35.4619 14.3779 33.9413C14.5355 32.8102 14.2945 31.8274 13.5527 30.9744C13.015 30.3625 12.3011 29.9917 11.5594 29.7043C10.0203 29.1201 8.47196 28.5824 6.93289 28.0076C5.78322 27.5811 4.67991 27.0526 3.73422 26.2645C2.55674 25.291 1.83356 24.0765 1.7872 22.5096C1.70376 19.9135 3.02958 18.1612 5.18984 16.9374C6.48785 16.2049 7.89712 15.7785 9.38984 15.7043C10.0203 15.6765 10.66 15.7043 11.4018 15.7043C11.4018 15.1016 11.4018 14.5083 11.4018 13.9242C11.3832 11.2169 11.3739 8.51886 11.3276 5.81158C11.309 4.81953 11.2812 3.81821 11.1792 2.82616C11.0772 1.86192 10.6786 1.03676 9.67725 0.665899C9.63089 0.647356 9.60308 0.573184 9.56599 0.517555C9.60308 0.480469 9.67725 0.480469 9.75142 0.480469C9.90904 0.508283 10.0574 0.545369 10.215 0.545369C11.717 0.545369 13.219 0.545369 14.7302 0.545369C14.8971 0.545369 15.064 0.508283 15.2309 0.480469C15.3792 0.480469 15.5276 0.480469 15.6759 0.480469Z" fill="#001218"/>
<path d="M33.5271 34.9805H40.9164C40.9164 34.9805 40.8237 35.0454 40.7681 35.0639C39.6833 35.444 39.1827 36.297 39.0158 37.354C38.9045 38.0401 38.8767 38.7447 38.8582 39.4493C38.8025 42.6202 38.7562 45.791 38.7376 48.9712C38.7284 51.1592 38.7655 53.338 38.784 55.5261C38.7933 56.5831 38.8025 57.6493 38.8674 58.7062C38.9045 59.3367 39.0065 59.9672 39.1549 60.5884C39.3496 61.4135 39.878 61.9884 40.6754 62.3129C40.7403 62.3407 40.8052 62.3685 40.8701 62.4056C40.8701 62.4056 40.8794 62.4241 40.8979 62.4612H33.7496C33.7496 62.4612 33.7403 62.4241 33.731 62.4056C33.8237 62.3685 33.9165 62.3221 33.9999 62.2851C34.89 61.8678 35.3721 61.1354 35.5019 60.2082C35.641 59.2718 35.7059 58.3261 35.7244 57.3804C35.7708 54.7102 35.7893 52.0493 35.8078 49.3791C35.8078 49.2586 35.8078 49.1381 35.8078 48.9804H20.4171C20.4171 49.0917 20.3986 49.203 20.3986 49.3235C20.3986 51.0016 20.3893 52.6798 20.4171 54.3579C20.445 56.0824 20.4635 57.8162 20.5748 59.5407C20.6675 60.8294 21.1496 61.9513 22.5125 62.4427H15.4013C16.7271 61.9049 17.2092 60.8202 17.2927 59.5129C17.3576 58.5023 17.4225 57.4917 17.4317 56.4904C17.4688 53.5235 17.5244 50.5659 17.4966 47.599C17.4874 46.2546 17.3576 44.901 17.2092 43.5659C17.0794 42.4162 16.486 41.5725 15.3364 41.1924C15.3085 41.1831 15.2807 41.1646 15.2344 41.146H22.5681C22.3085 41.2851 22.0118 41.4056 21.7522 41.5818C21.0569 42.0546 20.7509 42.7778 20.6397 43.5659C20.5377 44.2705 20.5284 44.9844 20.482 45.6983C20.445 46.199 20.4079 46.6997 20.3708 47.2281H35.7893C35.7893 47.1169 35.8078 46.9963 35.8078 46.8851C35.78 44.7526 35.7615 42.6109 35.7244 40.4785C35.7059 39.5328 35.678 38.5778 35.5761 37.6414C35.437 36.399 34.89 35.407 33.5271 34.9897V34.9805Z" fill="#001218"/>
<path d="M20.4875 80.52C20.4875 82.3002 20.4875 84.0247 20.4875 85.7584C20.4875 86.9637 20.4875 88.1783 20.5616 89.3836C20.6173 90.3571 20.849 91.3121 21.6649 91.9703C21.9338 92.1836 22.2583 92.3319 22.5179 92.4895H15.3047C16.7418 91.9981 17.2053 90.8856 17.2795 89.5505C17.3815 87.8909 17.4649 86.2313 17.502 84.5717C17.5484 82.2723 17.5577 79.9823 17.5577 77.6829C17.5577 75.6803 17.5298 73.6869 17.5113 71.6843C17.502 70.6459 17.4928 69.6075 17.4371 68.5783C17.3815 67.679 17.2888 66.7797 16.714 66.0101C16.3524 65.5187 15.8424 65.2962 15.3047 65.0273H33.5881V71.0075C33.3007 70.377 33.106 69.7558 32.7629 69.2366C32.049 68.1518 30.9364 67.6048 29.7219 67.2618C28.6927 66.9744 27.6451 66.8167 26.5788 66.8167C24.7709 66.8167 22.9537 66.8167 21.1457 66.8167C20.7007 66.8167 20.5524 66.9558 20.5524 67.4008C20.5245 71.0909 20.506 74.781 20.4782 78.471C20.4782 78.5452 20.4782 78.6194 20.4782 78.7399H20.8861C22.9815 78.7399 25.0769 78.777 27.1815 78.7306C28.804 78.6935 30.408 78.4896 31.9378 77.7849V83.8485C31.5669 82.0127 30.2689 81.2525 28.7206 80.8353C27.9417 80.622 27.1073 80.5478 26.2914 80.5293C24.502 80.4829 22.7126 80.52 20.9232 80.52H20.4875Z" fill="#001218"/>
<path d="M28.1374 40.3479C29.1387 38.1691 30.1123 36.0645 31.0579 33.9506C31.5864 32.7638 32.1056 31.5678 32.5692 30.3532C32.9215 29.4353 33.0606 28.4804 32.4209 27.5625H36.0738C34.8129 28.6287 34.2195 30.1585 33.5334 31.6049C31.5864 35.7029 29.7043 39.838 27.8036 43.9545C27.7666 44.038 27.7109 44.1214 27.6646 44.2049C26.9692 42.6009 26.3295 40.9969 25.5785 39.4486C24.1321 36.4446 22.6301 33.4684 21.1467 30.4923C20.8686 29.936 20.5904 29.3797 20.2474 28.8605C19.9229 28.3877 19.5149 27.9704 19.1719 27.5625H23.4368C22.8063 28.2393 22.9547 28.9903 23.2143 29.6857C23.5573 30.6221 23.9931 31.5214 24.4195 32.43C25.597 34.9797 26.7931 37.5201 27.9798 40.0605C28.0169 40.1347 28.054 40.2088 28.1467 40.3572L28.1374 40.3479Z" fill="#001218"/>
</svg>
