<svg width="54" height="54" viewBox="0 0 54 54" fill="none" xmlns="http://www.w3.org/2000/svg">
<path fill-rule="evenodd" clip-rule="evenodd" d="M27.8517 26.5196L36.8517 35.5196L36.1446 36.2267L27.1446 27.2267L18.1446 36.2267L17.4375 35.5196L26.4375 26.5196L18.1446 18.2266L18.8517 17.5195L27.1446 25.8124L35.4375 17.5195L36.1446 18.2266L27.8517 26.5196Z" fill="black"/>
<path fill-rule="evenodd" clip-rule="evenodd" d="M27.1484 52.375C41.2317 52.375 52.6484 40.9583 52.6484 26.875C52.6484 12.7917 41.2317 1.375 27.1484 1.375C13.0652 1.375 1.64844 12.7917 1.64844 26.875C1.64844 40.9583 13.0652 52.375 27.1484 52.375ZM27.1484 53.375C41.784 53.375 53.6484 41.5105 53.6484 26.875C53.6484 12.2395 41.784 0.375 27.1484 0.375C12.5129 0.375 0.648438 12.2395 0.648438 26.875C0.648438 41.5105 12.5129 53.375 27.1484 53.375Z" fill="black"/>
</svg>
