<svg width="126" height="110" viewBox="0 0 126 110" fill="none" xmlns="http://www.w3.org/2000/svg">
<path d="M65.0218 23.8783H60.5153V16.4285H65.0218V23.8783ZM69.8584 30.2364H74.3649V37.6862H69.8584V30.2364ZM69.8584 16.4285H74.3649V23.8783H69.8584V16.4285ZM76.5989 30.2364H81.1054V37.6862H76.5989V30.2364ZM76.5989 16.4285H81.1054V23.8783H76.5989V16.4285ZM55.6621 23.8783H51.1556V16.4285H55.6621V23.8783ZM55.6621 37.6862H51.1556V30.2364H55.6621V37.6862ZM48.9766 23.8783H44.4701V16.4285H48.9766V23.8783ZM48.9766 37.6862H44.4701V30.2364H48.9766V37.6862ZM40.0352 17.2459V45.734C40.0352 45.734 58.1822 45.7614 59.1506 45.7614V30.2255C59.1506 27.9324 60.9609 26.5554 63.1014 26.5554C65.2418 26.5554 67.0522 27.9708 67.0522 30.2255V45.734H85.5349V16.5876L62.3476 0.261719L40.0352 17.2459Z" fill="#001218"/>
<path d="M5.67723 81.74C6.17883 80.7089 6.4575 79.5663 6.84763 77.1141L7.1263 75.1913L7.4607 73.1012L7.7951 70.8162C7.93444 70.0359 8.01804 69.395 8.10164 68.9212C8.24097 68.1131 8.29671 67.723 8.29671 67.4443C8.29671 66.3853 7.4607 65.828 5.90016 65.828C3.36428 65.828 1.27427 67.5279 1.27427 69.6179C1.27427 70.5096 1.72014 71.1506 2.36108 71.1506C2.72335 71.1506 3.08561 70.844 3.08561 70.5096C3.08561 70.4539 3.05775 70.3982 3.02988 70.3146C3.00201 70.2031 3.00201 70.0916 3.00201 70.0359C3.00201 69.7294 3.30855 69.5064 3.72655 69.5064C4.39535 69.5064 4.92482 70.0916 4.92482 70.8162C4.92482 71.7915 4.03309 72.5996 3.00201 72.5996C1.66441 72.5996 0.605469 71.4014 0.605469 69.8966C0.605469 67.2492 3.11348 65.1313 6.2067 65.1313C6.59683 65.1313 7.40497 65.1592 8.15737 65.2428C8.71471 65.2985 9.35564 65.3264 9.71791 65.3264C10.6097 65.3264 11.1391 65.2149 11.8915 64.8527L12.0587 65.0756C11.2227 66.3575 10.9998 66.8034 10.7211 67.723C10.5261 68.3082 10.331 69.0884 10.1638 69.9802C10.0802 70.5375 9.96871 71.262 9.80151 72.4324C9.38351 75.4699 9.18844 76.5289 8.88191 78.0058C8.60324 79.1762 8.51964 79.4827 8.24097 80.2909L8.07377 80.7368C8.63111 80.2073 9.04911 79.7335 9.80151 78.7582C10.4146 77.9779 10.8883 77.2813 11.5293 76.3617C12.1145 75.4699 12.8947 74.2995 13.4242 73.4357L14.9569 70.9834C16.9911 67.723 17.9386 66.5247 19.5828 65.1313L19.8336 64.9084L20.0565 65.2149C19.5549 65.8559 19.2762 66.4411 18.9697 67.3886C18.8025 67.918 18.6353 68.6147 18.4681 69.6458C18.4402 69.9244 18.3845 70.3146 18.3009 70.9276C18.1894 71.6522 18.1616 71.903 18.1058 72.2095L17.855 74.411C17.5485 77.1141 17.2977 78.3959 16.7403 80.1237L17.1305 79.7335L17.8272 79.0647C18.8304 78.0894 20.6417 76.2502 21.617 75.2191C23.3726 73.3799 24.7381 71.68 25.6299 70.231C26.3823 69.0048 26.6609 68.2524 26.6609 67.5279C26.6609 66.8591 26.438 66.5247 25.8528 66.3853C25.2119 66.2181 25.0447 66.0509 25.0447 65.5493C25.0447 64.6855 25.7692 63.9609 26.6052 63.9609C27.6363 63.9609 28.3329 64.7969 28.3329 65.9952C28.3329 68.3639 25.8807 71.9587 20.7532 77.0026L18.8582 78.8697C18.2452 79.4827 17.5485 80.1794 16.7961 80.9876C14.9847 82.9382 14.5389 83.3562 13.8143 83.9414C13.5078 84.1644 13.3406 84.2758 12.9783 84.4709L12.7833 84.1922C14.3438 82.2973 14.9569 80.5417 15.4306 76.4453L15.6535 74.5503C15.9322 72.0702 16.1273 71.0391 16.4895 69.7851C16.0715 70.3703 15.9879 70.4818 15.1241 71.9308C15.0126 72.098 14.8733 72.2931 14.4553 72.9619C14.0094 73.6586 13.3685 74.6618 12.8111 75.5257C11.167 78.0894 9.35565 80.4024 7.8787 81.8236C6.3739 83.2726 5.20349 84.025 3.89375 84.4709L3.67082 84.1922C4.56255 83.5234 5.14776 82.771 5.67723 81.74Z" fill="#001218"/>
<path d="M25.7732 74.6326C27.3185 72.4539 28.7118 71.1113 29.4972 71.1113C29.9532 71.1113 30.2572 71.4406 30.2572 71.9979C30.2572 72.3273 30.1812 72.7579 29.9278 73.8473C30.0292 73.7206 30.0798 73.6446 30.1052 73.6193L30.4092 73.1886C31.4225 71.7446 32.3599 71.0859 33.3225 71.0859C34.0319 71.0859 34.5639 71.5673 34.5639 72.2259C34.5639 72.8339 34.0825 73.4166 33.5252 73.4166C33.1959 73.4166 32.9425 73.1886 32.8159 72.7326C32.6892 72.2766 32.5119 72.1246 32.1572 72.1246C31.7265 72.1246 31.2452 72.5299 30.5359 73.5433C29.9279 74.4046 29.4718 75.266 28.7878 76.862L28.4078 77.7233C28.2812 78.002 28.2052 78.2046 28.1798 78.2553L26.6345 82.0807H24.7852L28.2558 73.4673C28.4838 72.8846 28.6105 72.5299 28.6105 72.4033C28.6105 72.2766 28.5092 72.2006 28.4332 72.2006C28.2812 72.2006 28.0278 72.4033 27.5465 72.9353C27.3185 73.2139 26.9132 73.6953 26.7105 73.9486C26.5585 74.126 26.5332 74.202 26.0518 74.8353L25.9758 74.9873L25.6465 74.81L25.7732 74.6326Z" fill="#001218"/>
<path d="M36.0894 80.9697C35.304 81.8057 34.62 82.211 34.0373 82.211C33.5813 82.211 33.2773 81.907 33.2773 81.4257C33.2773 81.0963 33.4293 80.5137 33.6573 79.931L33.8347 79.475L34.0627 78.8923L36.3934 73.1416L36.4947 72.8883C36.5707 72.711 36.596 72.5843 36.596 72.5336C36.596 72.4576 36.52 72.3816 36.444 72.3816C36.292 72.3816 36.0134 72.635 35.532 73.167C35 73.7496 34.3667 74.5603 33.9613 75.1683L33.708 75.0416C35.1014 72.863 36.8747 71.191 37.812 71.191C38.2427 71.191 38.572 71.495 38.572 71.9256C38.572 72.179 38.5214 72.3816 38.3694 72.8376C38.268 73.091 38.04 73.699 37.8627 74.1043C37.736 74.4083 37.66 74.611 37.6347 74.6363L35.5067 80.1337L35.4307 80.3363C35.304 80.6657 35.2534 80.7923 35.2534 80.8683C35.2534 80.9697 35.304 81.0203 35.38 81.0203C35.5827 81.0203 35.912 80.7417 36.5707 79.9563C37.0267 79.3737 37.3307 79.019 37.5587 78.6897L37.812 78.867C37.432 79.4497 36.7734 80.235 36.0894 80.9697ZM38.2934 67.1883C37.6854 67.1883 37.1534 66.6816 37.1534 66.0736C37.1534 65.4656 37.66 64.9336 38.268 64.9336C38.876 64.9336 39.408 65.4403 39.408 66.0483C39.408 66.6563 38.9014 67.1883 38.2934 67.1883Z" fill="#001218"/>
<path d="M46.5022 73.5182C46.5022 75.9249 44.6529 78.1035 42.6009 78.1035C42.2969 78.1035 42.1449 78.0529 41.8662 77.9769L41.7395 78.0782C41.1569 78.5849 40.9542 78.8889 40.9542 79.1422C40.9542 79.4715 41.2329 79.6235 42.3222 79.9782L43.5382 80.3582C45.0329 80.8142 45.6409 81.1689 46.0969 81.8022C46.3502 82.1316 46.5022 82.5622 46.5022 82.9929C46.5022 84.6142 44.8049 85.6782 42.1449 85.6782C39.6875 85.6782 37.9648 84.8929 37.9648 83.7529C37.9648 83.0689 38.6742 82.3089 39.7635 81.7769L40.6249 81.3716C40.7009 81.3462 40.7769 81.2956 40.9035 81.2449C40.1435 80.8649 39.8902 80.5355 39.8902 79.9529C39.8902 79.2182 40.3462 78.6355 41.5115 77.7489C40.8022 77.2169 40.3715 76.3049 40.3715 75.3169C40.3715 73.1635 42.2969 71.2128 44.3995 71.2128C45.2102 71.2128 45.7929 71.4915 46.1475 72.0995C46.5022 71.9728 46.5529 71.9728 47.0849 71.6182C47.5662 71.3142 47.9209 71.1875 48.3009 71.1875C48.7569 71.1875 49.0862 71.4662 49.0862 71.8968C49.0862 72.3022 48.7822 72.5555 48.2756 72.5555C48.0476 72.5555 47.8956 72.5302 47.4396 72.4542C47.1356 72.3782 46.9582 72.3528 46.8569 72.3528C46.6796 72.3528 46.5276 72.4035 46.3249 72.4795C46.4769 72.8848 46.5022 73.0622 46.5022 73.5182ZM40.9289 81.7009C39.6115 82.3849 39.2315 82.8156 39.2315 83.5756C39.2315 84.6902 40.2955 85.3489 42.1195 85.3489C42.9809 85.3489 43.9689 85.1716 44.6022 84.9182C45.2862 84.6396 45.6155 84.2596 45.6155 83.7022C45.6155 83.1449 45.2102 82.6889 44.3235 82.3849L43.0569 81.9542L41.7395 81.4982C41.5875 81.4476 41.5115 81.4222 41.4862 81.4222C41.4609 81.4222 41.2075 81.5489 40.9289 81.7009ZM44.4755 71.5422C43.9435 71.5422 43.3862 71.9728 42.9049 72.7075C42.1955 73.8475 41.6129 75.5702 41.6129 76.6089C41.6129 77.3182 41.9169 77.7489 42.3982 77.7489C42.8542 77.7489 43.3862 77.2929 43.9689 76.4315C44.7542 75.2662 45.3115 73.7208 45.3115 72.7328C45.3115 71.9728 45.0075 71.5422 44.4755 71.5422Z" fill="#001218"/>
<path d="M51.622 74.8611L51.9006 74.4558C52.8126 73.2144 53.37 72.5811 54.054 72.0237C54.738 71.4664 55.3206 71.1877 55.802 71.1877C56.3846 71.1877 56.7646 71.6691 56.7646 72.4037C56.7646 72.9104 56.638 73.3664 55.9793 75.0891L54.0793 80.0038C54.0286 80.1051 54.0033 80.2064 53.9526 80.3584C53.902 80.5105 53.8513 80.6118 53.826 80.6625C53.8006 80.7385 53.7753 80.8145 53.7753 80.8905C53.7753 80.9665 53.8513 81.0171 53.9273 81.0171C54.1806 81.0171 54.9153 80.2824 55.5993 79.2944L56.0553 78.6358C56.0806 78.6358 56.106 78.5851 56.1566 78.5091L56.4606 78.6864C55.7006 79.8518 55.194 80.5105 54.4846 81.1185C53.6486 81.8785 53.142 82.1825 52.6353 82.1825C52.2553 82.1825 51.9006 81.8278 51.9006 81.3971C51.9006 81.0678 52.0526 80.5611 52.4073 79.5984L52.61 79.0918L54.7633 73.3917C54.814 73.2651 54.8393 73.1637 54.8393 73.1384L54.9406 72.7837C54.9913 72.6571 54.9913 72.5557 54.9913 72.4797C54.9913 72.3531 54.8646 72.2264 54.738 72.2264C54.2313 72.2264 53.218 73.2397 52.1793 74.7344C51.2166 76.1784 50.4819 77.6224 49.4686 80.1304L48.7086 82.0811H46.8086L52.8886 66.9571L52.99 66.7037L53.066 66.4504C53.066 66.3997 53.0913 66.3237 53.0913 66.273C53.0913 65.817 52.7366 65.6144 51.9006 65.6144H51.394L51.5206 65.2344H55.498L51.622 74.8611Z" fill="#001218"/>
<path d="M65.0455 72.1519H62.9175L59.5988 80.436C59.5481 80.5373 59.5228 80.6133 59.4974 80.664C59.4721 80.74 59.4468 80.816 59.4468 80.8666C59.4468 80.9426 59.4974 80.9933 59.5988 80.9933C59.6494 80.9933 59.7761 80.9426 59.8774 80.892C60.2574 80.6386 60.9668 80.0053 61.4734 79.4733L62.0561 78.84C62.0561 78.84 62.1068 78.764 62.2081 78.688L62.4615 78.8653L62.3601 78.992C60.8148 80.8666 59.0921 82.1586 58.2054 82.1586C57.7748 82.1586 57.4961 81.88 57.4961 81.4493C57.4961 81.0693 57.6481 80.5373 58.0788 79.4733L61.0174 72.1519H59.7254L60.0801 71.2653H61.3721L62.0815 69.5172L64.3868 68.5039L63.2721 71.2653H65.4255L65.0455 72.1519Z" fill="#001218"/>
<path d="M69.1222 67.3405C68.4382 67.3405 67.9062 66.8338 67.9062 66.1752C67.9062 65.5165 68.4382 65.0352 69.0715 65.0352C69.7809 65.0352 70.2622 65.5672 70.2622 66.3272C70.2622 67.7712 69.1475 68.8098 67.2222 69.2152L67.0195 69.2405L67.0449 68.9618L67.1715 68.9112C68.3875 68.5565 69.0462 68.0498 69.3249 67.3152C69.2235 67.3152 69.1982 67.3405 69.1222 67.3405Z" fill="#001218"/>
<path d="M73.639 73.0407C73.3603 73.0407 73.107 72.8634 72.575 72.3061C72.1696 71.9007 71.967 71.7741 71.6376 71.7741C70.903 71.7741 70.295 72.5087 70.295 73.3954C70.295 73.7754 70.371 74.1808 70.5483 74.6368C70.675 74.8901 70.7763 75.1181 71.359 76.1061C71.967 77.1954 72.2203 77.9048 72.2203 78.7914C72.2203 80.8181 70.8776 82.1861 68.851 82.1861C67.3563 82.1861 65.9883 81.4008 65.9883 80.5648C65.9883 80.0835 66.3429 79.7288 66.8243 79.7288C67.2296 79.7288 67.407 79.9314 67.6856 80.5901C68.015 81.4515 68.4203 81.8061 69.1296 81.8061C70.067 81.8061 70.903 80.9195 70.903 79.9314C70.903 79.5261 70.7256 78.9434 70.4216 78.4368L69.839 77.3981C69.3323 76.4861 69.079 75.7008 69.079 74.8901C69.079 72.9141 70.6243 71.1914 72.3723 71.1914C73.3603 71.1914 74.2977 71.7741 74.2723 72.3567C74.2723 72.7367 73.9683 73.0407 73.639 73.0407Z" fill="#001218"/>
<path d="M89.914 78.2834H89.6075C89.8026 77.3359 89.8583 76.7507 89.8583 76.1934C89.8583 74.8836 89.0223 74.4099 86.8487 74.4099H85.9569C85.9291 74.4099 85.7897 74.382 85.5947 74.382L83.7833 79.0079C82.5015 82.2404 81.5818 84.0239 80.495 85.473C78.5165 88.1482 76.5101 89.3743 74.0857 89.3743C73.3333 89.3743 72.4415 89.235 71.8285 88.9842C71.1318 88.7334 70.7695 88.3433 70.7695 87.8695C70.7695 87.4237 71.2154 87.0057 71.717 87.0057C72.135 87.0057 72.5809 87.1729 73.6677 87.7859C74.643 88.3154 75.1446 88.5105 75.702 88.5105C76.5101 88.5105 77.151 88.0646 77.9034 86.9499C78.1821 86.5319 78.5165 85.9189 78.9624 84.9435C79.2689 84.3583 79.6869 83.383 79.8262 82.9929L80.4114 81.5995L80.5786 81.1258L85.2324 68.7808C85.2603 68.725 85.316 68.5578 85.3996 68.307C85.6225 67.694 85.6504 67.4989 85.6504 67.2481C85.6504 66.4957 84.8701 66.022 83.5604 66.022C82.39 66.022 80.8294 66.44 79.7148 67.0252C77.9313 67.9726 76.8445 69.5332 76.8445 71.1495C76.8445 72.4592 77.6248 73.4067 78.7394 73.4067C79.3525 73.4067 79.7705 73.0723 79.7705 72.5428C79.7705 72.3756 79.7426 72.2363 79.659 72.0969L79.4918 71.7904C79.4082 71.6789 79.3804 71.5675 79.3804 71.456C79.3804 71.0101 79.882 70.62 80.4393 70.62C81.1917 70.62 81.7491 71.1773 81.7491 71.9297C81.7491 73.1559 80.5508 74.2148 79.1296 74.2148C77.4576 74.2148 76.2593 72.9051 76.2593 71.1216C76.2593 68.725 78.2378 66.6072 81.2474 65.799C82.3621 65.4925 83.2817 65.381 84.898 65.3532C85.9012 65.3253 86.988 65.3253 87.2945 65.3253L88.2978 65.3532H96.7693L97.3823 64.8516H97.7446L98.4413 69.8397H98.0511C96.7135 66.858 95.2923 65.9384 92.1155 65.9384C89.3567 65.9384 88.7994 66.3006 87.7683 68.948L85.8176 73.8804C90.0534 73.8804 90.9451 73.4345 92.2548 70.6757H92.645L89.914 78.2834Z" fill="#001218"/>
<path d="M94.8587 82.1627C93.6174 82.1627 92.832 81.2507 92.832 79.7813C92.832 77.9067 94.0734 75.272 95.8974 73.22C97.1387 71.8266 98.1267 71.168 99.0387 71.168C99.9507 71.168 100.533 71.7253 100.533 72.5866C100.533 73.144 100.28 73.7773 99.8241 74.2587C99.1401 75.0187 97.8734 75.9307 96.2014 76.9187C95.6694 77.2227 95.492 77.324 95.2894 77.476C94.9854 78.312 94.6814 79.6293 94.6814 80.2627C94.6814 80.9467 95.036 81.3774 95.568 81.3774C96.404 81.3774 97.3414 80.592 98.5067 78.8947L98.6334 78.6667L98.9374 78.8187C97.6961 80.9214 96.1507 82.1627 94.8587 82.1627ZM97.6454 75.2973C98.9121 74.0306 99.4947 73.0933 99.4947 72.308C99.4947 71.852 99.2667 71.548 98.9121 71.548C98.3294 71.548 97.7214 72.1306 97.0121 73.372C96.3787 74.4867 95.8974 75.576 95.4667 76.944C96.024 76.6653 97.0121 75.9307 97.6454 75.2973Z" fill="#001218"/>
<path d="M100.867 74.6326C102.412 72.4539 103.806 71.1113 104.591 71.1113C105.047 71.1113 105.351 71.4406 105.351 71.9979C105.351 72.3273 105.275 72.7579 105.022 73.8473C105.123 73.7206 105.174 73.6446 105.199 73.6193L105.503 73.1886C106.516 71.7446 107.454 71.0859 108.416 71.0859C109.126 71.0859 109.658 71.5673 109.658 72.2259C109.658 72.8339 109.176 73.4166 108.619 73.4166C108.29 73.4166 108.036 73.1886 107.91 72.7326C107.783 72.2766 107.606 72.1246 107.251 72.1246C106.82 72.1246 106.339 72.5299 105.63 73.5433C105.022 74.4046 104.566 75.266 103.882 76.862L103.502 77.7233C103.375 78.002 103.299 78.2046 103.274 78.2553L101.728 82.0807H99.8789L103.35 73.4673C103.578 72.8846 103.704 72.5299 103.704 72.4033C103.704 72.2766 103.603 72.2006 103.527 72.2006C103.375 72.2006 103.122 72.4033 102.64 72.9353C102.412 73.2139 102.007 73.6953 101.804 73.9486C101.652 74.126 101.627 74.202 101.146 74.8353L101.07 74.9873L100.74 74.81L100.867 74.6326Z" fill="#001218"/>
<path d="M108.867 74.6326C110.412 72.4539 111.806 71.1113 112.591 71.1113C113.047 71.1113 113.351 71.4406 113.351 71.9979C113.351 72.3273 113.275 72.7579 113.022 73.8473C113.123 73.7206 113.174 73.6446 113.199 73.6193L113.503 73.1886C114.516 71.7446 115.454 71.0859 116.416 71.0859C117.126 71.0859 117.658 71.5673 117.658 72.2259C117.658 72.8339 117.176 73.4166 116.619 73.4166C116.29 73.4166 116.036 73.1886 115.91 72.7326C115.783 72.2766 115.606 72.1246 115.251 72.1246C114.82 72.1246 114.339 72.5299 113.63 73.5433C113.022 74.4046 112.566 75.266 111.882 76.862L111.502 77.7233C111.375 78.002 111.299 78.2046 111.274 78.2553L109.728 82.0807H107.879L111.35 73.4673C111.578 72.8846 111.704 72.5299 111.704 72.4033C111.704 72.2766 111.603 72.2006 111.527 72.2006C111.375 72.2006 111.122 72.4033 110.64 72.9353C110.412 73.2139 110.007 73.6953 109.804 73.9486C109.652 74.126 109.627 74.202 109.146 74.8353L109.07 74.9873L108.74 74.81L108.867 74.6326Z" fill="#001218"/>
<path d="M123.894 75.1141C123.894 74.6581 123.844 74.1767 123.717 73.4421C123.616 72.7834 123.59 72.5807 123.59 72.2767C123.59 71.5927 123.92 71.1367 124.426 71.1367C124.933 71.1367 125.212 71.6434 125.212 72.5554C125.212 74.1007 124.097 77.3688 122.526 80.5101C120.804 83.9048 119.208 85.5261 117.536 85.5261C116.725 85.5261 116.066 85.0195 116.066 84.4115C116.066 83.9301 116.421 83.5754 116.877 83.5754C117.232 83.5754 117.434 83.7021 117.865 84.1835C118.22 84.5888 118.372 84.6901 118.6 84.6901C119.182 84.6901 119.993 83.9555 120.246 83.1448C120.398 82.7394 120.449 82.1821 120.449 81.4221C120.449 79.0408 120.196 75.8994 119.816 74.1007C119.562 72.8087 119.36 72.3274 119.005 72.3274C118.498 72.3274 117.814 73.5941 117.358 75.3674L117.054 75.3167C117.561 72.9607 118.828 71.1621 119.942 71.1621C120.626 71.1621 120.981 71.6181 121.336 73.0874C121.614 74.2021 121.893 76.3301 121.944 77.6728L121.994 78.7874L122.045 79.9528L122.07 80.3581V80.5861C123.464 77.8501 123.894 76.5581 123.894 75.1141Z" fill="#001218"/>
<path d="M43.811 99.2984C45.7896 97.0412 47.3222 95.5642 49.1614 94.0873C52.2547 91.6629 55.2085 90.2695 57.2707 90.2695C58.3854 90.2695 59.3328 90.9662 59.3328 91.8022C59.3328 92.2202 59.0263 92.5825 58.664 92.5825C58.3854 92.5825 58.1067 92.3038 58.1067 92.0251C58.1067 91.9137 58.1346 91.8022 58.1624 91.6907C58.2182 91.5235 58.246 91.3842 58.246 91.2727C58.246 90.9941 57.9674 90.8269 57.5772 90.8269C56.4068 90.8269 54.6512 92.471 53.0349 95.0626C51.0007 98.323 49.5794 102.615 49.5794 105.457C49.5794 107.213 50.3597 108.355 51.5859 108.355C52.4497 108.355 53.0071 108.021 53.7037 107.073L54.0381 107.296C53.0071 108.885 51.9203 109.609 50.5269 109.609C48.4926 109.609 47.2108 107.937 47.2108 105.29C47.2108 100.831 50.1925 95.0905 54.2611 91.7465L54.7627 91.3285C51.4187 92.6103 46.9878 96.1773 43.9504 100.051C43.9782 100.302 44.0061 100.469 44.0339 100.608C44.1454 101.556 44.229 102.67 44.229 103.255C44.229 106.767 42.9471 109.33 41.1637 109.33C40.1047 109.33 39.4917 108.522 39.4917 107.24C39.4917 105.959 40.2441 104.036 41.4702 102.364L41.9439 101.723C41.9718 101.695 42.0275 101.611 42.1111 101.472C41.9161 100.134 41.6653 98.9361 41.2473 97.2641C40.9686 96.233 40.7178 95.2577 40.467 94.5332C40.3277 94.1709 40.2441 93.9479 40.0211 93.4185C39.8261 95.0626 39.5474 96.456 39.2409 97.6264C38.1819 101.444 36.705 104.147 34.4478 106.321C32.107 108.606 29.376 109.804 26.4221 109.804C24.1092 109.804 22.3814 109.135 21.211 107.798C20.4029 106.878 19.957 105.708 19.957 104.593C19.957 102.615 21.3504 100.97 23.0224 100.97C24.1928 100.97 25.1124 101.751 25.1124 102.782C25.1124 103.562 24.5829 104.147 23.8584 104.147C23.4404 104.147 23.1338 103.896 23.1338 103.59C23.1338 103.534 23.1617 103.423 23.1896 103.228C23.1896 103.172 23.2174 103.088 23.2174 103.033C23.2174 102.531 22.7437 102.113 22.2142 102.113C21.2389 102.113 20.4865 103.228 20.4865 104.593C20.4865 107.045 22.7158 108.773 25.8927 108.773C32.8594 108.773 39.0458 101.388 39.5753 92.3595C38.5442 92.2481 37.9033 92.2202 37.0115 92.2202C35.3395 92.2202 34.0576 92.4431 33.3331 92.8611C32.5528 93.3349 32.0791 94.0594 32.0791 94.8676C32.0791 95.7314 32.6922 96.4002 33.4724 96.4002C33.974 96.4002 34.3642 96.0937 34.3642 95.6757C34.3642 95.5921 34.3363 95.5085 34.3084 95.397C34.2806 95.2856 34.2806 95.202 34.2806 95.1462C34.2806 94.8954 34.6428 94.6168 34.9772 94.6168C35.6182 94.6168 36.1476 95.1462 36.1476 95.7872C36.1476 96.6789 35.228 97.4313 34.1412 97.4313C32.72 97.4313 31.5775 96.2888 31.5775 94.8397C31.5775 92.9726 33.0266 91.4678 35.3952 90.9105C36.2034 90.7154 37.0115 90.6318 38.4885 90.6318C39.4359 90.6318 40.0769 90.6597 41.1358 90.7154C42.1947 92.889 43.1422 95.8708 43.811 99.2984ZM40.0211 107.24C40.0211 108.104 40.4113 108.717 40.9686 108.717C41.9161 108.717 42.3898 107.324 42.3898 104.593C42.3898 103.98 42.3619 103.534 42.2783 102.587L42.2226 102.252C40.8014 104.119 40.0211 105.875 40.0211 107.24Z" fill="#001218"/>
<path d="M65.0199 96.9268C64.5639 97.8894 63.6772 99.8908 63.2465 100.929C62.7905 101.993 62.1065 103.716 61.7265 104.729C61.4732 105.413 61.3212 105.869 61.3212 106.072C61.3212 106.173 61.3972 106.249 61.4732 106.249C61.7265 106.249 62.6132 105.261 63.4492 104.045L63.6519 104.223C62.5119 106.097 61.0172 107.491 60.2065 107.491C59.7758 107.491 59.5985 107.288 59.5985 106.807C59.5985 106.325 59.7758 105.54 60.2065 104.223L60.3079 103.919L60.1558 104.172C59.2692 105.464 58.7878 106.047 58.1292 106.629C57.4198 107.237 56.8372 107.491 56.2038 107.491C55.2918 107.491 54.7852 106.959 54.7852 105.996C54.7852 104.223 56.2798 101.309 58.4078 98.9534C59.8518 97.3828 61.2199 96.4961 62.2079 96.4961C62.5879 96.4961 62.9172 96.6481 63.1959 96.9774L63.4999 96.6481H65.1465L65.0199 96.9268ZM62.2079 96.8508C61.6252 96.8508 60.8905 97.5348 59.7758 99.0801C58.8385 100.448 57.8758 102.145 57.2678 103.64C56.8372 104.653 56.6345 105.489 56.6345 106.072C56.6345 106.503 56.7865 106.68 57.1158 106.68C57.8758 106.68 59.2185 105.211 60.5105 102.905C61.2705 101.537 62.1825 99.4854 62.4865 98.3961C62.6132 98.0161 62.6639 97.6868 62.6639 97.4334C62.6639 97.0534 62.5119 96.8508 62.2079 96.8508Z" fill="#001218"/>
<path d="M65.1699 100.244C66.5379 98.0142 68.1086 96.5195 69.0713 96.5195C69.4766 96.5195 69.7553 96.8742 69.7553 97.4062C69.7553 97.7355 69.6793 98.0649 69.502 98.6475C69.4006 98.9769 69.2486 99.4582 69.122 99.7875C68.97 100.21 68.8686 100.505 68.8179 100.674C69.4259 99.7115 70.4393 98.4449 71.174 97.7862C72.0606 96.9755 72.7446 96.5955 73.3273 96.5955C73.91 96.5955 74.3153 97.0515 74.3153 97.7355C74.3153 98.1662 74.138 98.7742 73.7326 99.7875L71.4526 105.412C71.4273 105.437 71.402 105.513 71.326 105.665C71.2753 105.792 71.2246 105.918 71.1993 105.994L71.1486 106.146C71.1233 106.222 71.1233 106.298 71.1233 106.324C71.1233 106.374 71.174 106.45 71.25 106.45C71.554 106.45 72.6686 105.26 73.4793 104.044L73.758 104.246C72.5673 106.096 70.9206 107.514 69.9073 107.514C69.502 107.514 69.1979 107.185 69.1979 106.704C69.1979 106.45 69.3246 105.969 69.5273 105.462L69.73 104.93L69.9073 104.5L72.1113 99.0529L72.238 98.7742L72.4153 98.3182C72.466 98.1915 72.466 98.0902 72.466 97.9889C72.466 97.8115 72.3393 97.6595 72.162 97.6595C71.6806 97.6595 70.7433 98.5715 69.7046 100.041C68.6406 101.51 67.8046 103.157 66.6393 105.944C66.2846 106.78 66.2086 106.957 66.0059 107.413H64.3086L67.2979 100.016L67.5513 99.3569C67.9059 98.4449 68.0579 98.0395 68.0579 97.8622C68.0579 97.7355 67.9819 97.6595 67.8806 97.6595C67.5006 97.6595 66.4366 98.8755 65.4739 100.421L65.1699 100.244Z" fill="#001218"/>
<path d="M81.5609 98.3689C81.2822 98.3689 81.0289 98.1915 80.4969 97.6342C80.0915 97.2289 79.8888 97.1022 79.5595 97.1022C78.8248 97.1022 78.2168 97.8369 78.2168 98.7235C78.2168 99.1035 78.2928 99.5089 78.4702 99.9649C78.5968 100.218 78.6982 100.446 79.2809 101.434C79.8889 102.524 80.1422 103.233 80.1422 104.12C80.1422 106.146 78.7995 107.514 76.7728 107.514C75.2782 107.514 73.9102 106.729 73.9102 105.893C73.9102 105.412 74.2648 105.057 74.7462 105.057C75.1515 105.057 75.3288 105.26 75.6075 105.918C75.9368 106.78 76.3422 107.134 77.0515 107.134C77.9888 107.134 78.8248 106.248 78.8248 105.26C78.8248 104.854 78.6475 104.272 78.3435 103.765L77.7608 102.726C77.2542 101.814 77.0008 101.029 77.0008 100.218C77.0008 98.2422 78.5462 96.5195 80.2942 96.5195C81.2822 96.5195 82.2195 97.1022 82.1942 97.6849C82.1942 98.0649 81.8902 98.3689 81.5609 98.3689Z" fill="#001218"/>
<path d="M84.8315 106.306C84.0462 107.142 83.3622 107.547 82.7795 107.547C82.3235 107.547 82.0195 107.243 82.0195 106.762C82.0195 106.432 82.1715 105.85 82.3995 105.267L82.5769 104.811L82.8049 104.228L85.1355 98.4776L85.2369 98.2242C85.3129 98.0469 85.3382 97.9202 85.3382 97.8696C85.3382 97.7936 85.2622 97.7176 85.1862 97.7176C85.0342 97.7176 84.7555 97.9709 84.2742 98.5029C83.7422 99.0856 83.1089 99.8962 82.7035 100.504L82.4502 100.378C83.8435 98.1989 85.6169 96.5269 86.5542 96.5269C86.9849 96.5269 87.3142 96.8309 87.3142 97.2616C87.3142 97.5149 87.2636 97.7176 87.1116 98.1736C87.0102 98.4269 86.7822 99.0349 86.6049 99.4402C86.4782 99.7442 86.4022 99.9469 86.3769 99.9722L84.2489 105.47L84.1729 105.672C84.0462 106.002 83.9955 106.128 83.9955 106.204C83.9955 106.306 84.0462 106.356 84.1222 106.356C84.3249 106.356 84.6542 106.078 85.3129 105.292C85.7689 104.71 86.0729 104.355 86.3009 104.026L86.5542 104.203C86.1742 104.786 85.5156 105.571 84.8315 106.306ZM87.0356 92.5242C86.4275 92.5242 85.8955 92.0175 85.8955 91.4095C85.8955 90.8015 86.4022 90.2695 87.0102 90.2695C87.6182 90.2695 88.1502 90.7762 88.1502 91.3842C88.1502 91.9922 87.6436 92.5242 87.0356 92.5242Z" fill="#001218"/>
<path d="M87.6445 104.353C87.6445 101.997 88.6579 99.7428 90.4819 97.9948C91.4699 97.0321 92.3819 96.5508 93.1926 96.5508C93.8766 96.5508 94.3832 96.9561 94.7126 97.7668C94.9659 98.3241 95.0926 99.0588 95.0926 99.7175C95.0926 101.339 94.4846 103.188 93.4459 104.733C92.4072 106.279 90.6845 107.52 89.6205 107.52C88.4045 107.52 87.6445 106.279 87.6445 104.353ZM93.3446 96.9054C92.7112 96.9054 91.9512 97.8681 90.8365 100.047C89.6712 102.352 88.7845 104.961 88.7845 106.177C88.7845 106.785 89.0632 107.165 89.4685 107.165C90.1019 107.165 90.9125 106.152 91.9766 104.075C93.1419 101.795 94.0032 99.1348 94.0032 97.7921C94.0032 97.2601 93.7499 96.9054 93.3446 96.9054Z" fill="#001218"/>
<path d="M95.7949 100.244C97.1629 98.0142 98.7336 96.5195 99.6963 96.5195C100.102 96.5195 100.38 96.8742 100.38 97.4062C100.38 97.7355 100.304 98.0649 100.127 98.6475C100.026 98.9769 99.8736 99.4582 99.747 99.7875C99.595 100.21 99.4936 100.505 99.443 100.674C100.051 99.7115 101.064 98.4449 101.799 97.7862C102.686 96.9755 103.37 96.5955 103.952 96.5955C104.535 96.5955 104.94 97.0515 104.94 97.7355C104.94 98.1662 104.763 98.7742 104.358 99.7875L102.078 105.412C102.052 105.437 102.027 105.513 101.951 105.665C101.9 105.792 101.85 105.918 101.824 105.994L101.774 106.146C101.748 106.222 101.748 106.298 101.748 106.324C101.748 106.374 101.799 106.45 101.875 106.45C102.179 106.45 103.294 105.26 104.104 104.044L104.383 104.246C103.192 106.096 101.546 107.514 100.532 107.514C100.127 107.514 99.823 107.185 99.823 106.704C99.823 106.45 99.9496 105.969 100.152 105.462L100.355 104.93L100.532 104.5L102.736 99.0529L102.863 98.7742L103.04 98.3182C103.091 98.1915 103.091 98.0902 103.091 97.9889C103.091 97.8115 102.964 97.6595 102.787 97.6595C102.306 97.6595 101.368 98.5715 100.33 100.041C99.2656 101.51 98.4296 103.157 97.2643 105.944C96.9096 106.78 96.8336 106.957 96.6309 107.413H94.9336L97.9229 100.016L98.1763 99.3569C98.5309 98.4449 98.683 98.0395 98.683 97.8622C98.683 97.7355 98.6069 97.6595 98.5056 97.6595C98.1256 97.6595 97.0616 98.8755 96.0989 100.421L95.7949 100.244Z" fill="#001218"/>
</svg>
